#N canvas 280 402 867 581 10;
#X declare -lib mrpeach;
#X obj 709 1 loadbang;
#X obj 709 22 delay 100;
#X msg 709 46 \; pd dsp 1;
#X obj 39 37 import mrpeach;
#X obj 312 39 unpackOSC;
#X obj 312 20 udpreceive 8000;
#X obj 312 97 routeOSC /photodiode;
#X obj 33 529 dac~;
#X obj 32 476 *~;
#X obj 32 358 osc~ 100;
#X obj 92 476 *~;
#X obj 152 476 *~;
#X obj 212 476 *~;
#X obj 272 476 *~;
#X obj 332 476 *~;
#X obj 392 476 *~;
#X obj 452 476 *~;
#X obj 153 529 dac~;
#X obj 271 528 dac~;
#X obj 391 526 dac~;
#X obj 92 358 osc~ 200;
#X obj 152 358 osc~ 300;
#X obj 212 358 osc~ 400;
#X obj 272 358 osc~ 500;
#X obj 332 358 osc~ 600;
#X obj 392 358 osc~ 700;
#X obj 452 358 osc~ 800;
#X obj 312 124 unpack f f f f f f f f;
#X obj 312 159 expr (930-$f1)/4000;
#X obj 332 179 expr (930-$f1)/4000;
#X obj 352 199 expr (930-$f1)/4000;
#X obj 371 219 expr (930-$f1)/4000;
#X obj 392 239 expr (930-$f1)/4000;
#X obj 412 259 expr (930-$f1)/4000;
#X obj 432 279 expr (930-$f1)/4000;
#X obj 452 299 expr (930-$f1)/4000;
#X obj 44 440 vline~;
#X msg 44 421 \$1 200;
#X obj 105 438 vline~;
#X msg 105 419 \$1 200;
#X obj 164 437 vline~;
#X msg 164 418 \$1 200;
#X obj 225 435 vline~;
#X msg 225 416 \$1 200;
#X obj 284 440 vline~;
#X msg 284 421 \$1 200;
#X obj 345 438 vline~;
#X msg 345 419 \$1 200;
#X obj 404 437 vline~;
#X msg 404 418 \$1 200;
#X obj 465 435 vline~;
#X msg 465 416 \$1 200;
#X connect 0 0 1 0;
#X connect 1 0 2 0;
#X connect 4 0 6 0;
#X connect 5 0 4 0;
#X connect 6 0 27 0;
#X connect 8 0 7 0;
#X connect 9 0 8 0;
#X connect 10 0 7 1;
#X connect 11 0 17 0;
#X connect 12 0 17 1;
#X connect 13 0 18 0;
#X connect 14 0 18 1;
#X connect 15 0 19 0;
#X connect 16 0 19 1;
#X connect 20 0 10 0;
#X connect 21 0 11 0;
#X connect 22 0 12 0;
#X connect 23 0 13 0;
#X connect 24 0 14 0;
#X connect 25 0 15 0;
#X connect 26 0 16 0;
#X connect 27 0 28 0;
#X connect 27 1 29 0;
#X connect 27 2 30 0;
#X connect 27 3 31 0;
#X connect 27 4 32 0;
#X connect 27 5 33 0;
#X connect 27 6 34 0;
#X connect 27 7 35 0;
#X connect 28 0 37 0;
#X connect 29 0 39 0;
#X connect 30 0 41 0;
#X connect 31 0 43 0;
#X connect 32 0 45 0;
#X connect 33 0 47 0;
#X connect 34 0 49 0;
#X connect 35 0 51 0;
#X connect 36 0 8 1;
#X connect 37 0 36 0;
#X connect 38 0 10 1;
#X connect 39 0 38 0;
#X connect 40 0 11 1;
#X connect 41 0 40 0;
#X connect 42 0 12 1;
#X connect 43 0 42 0;
#X connect 44 0 13 1;
#X connect 45 0 44 0;
#X connect 46 0 14 1;
#X connect 47 0 46 0;
#X connect 48 0 15 1;
#X connect 49 0 48 0;
#X connect 50 0 16 1;
#X connect 51 0 50 0;
