#N canvas 419 364 1292 581 10;
#X declare -lib mrpeach;
#X obj 709 1 loadbang;
#X obj 709 22 delay 100;
#X msg 709 46 \; pd dsp 1;
#X obj 39 37 import mrpeach;
#X obj 312 39 unpackOSC;
#X obj 312 20 udpreceive 8000;
#X obj 343 79 routeOSC /photodiode;
#X obj 33 529 dac~;
#X obj 32 476 *~;
#X obj 32 358 osc~ 100;
#X obj 92 476 *~;
#X obj 152 476 *~;
#X obj 212 476 *~;
#X obj 272 476 *~;
#X obj 332 476 *~;
#X obj 392 476 *~;
#X obj 452 476 *~;
#X obj 153 529 dac~;
#X obj 271 528 dac~;
#X obj 391 526 dac~;
#X obj 92 358 osc~ 200;
#X obj 152 358 osc~ 300;
#X obj 212 358 osc~ 400;
#X obj 272 358 osc~ 500;
#X obj 332 358 osc~ 600;
#X obj 392 358 osc~ 700;
#X obj 452 358 osc~ 800;
#X obj 312 159 expr (1024-$f1)/4000;
#X obj 332 179 expr (1024-$f1)/4000;
#X obj 352 199 expr (1024-$f1)/4000;
#X obj 371 219 expr (1024-$f1)/4000;
#X obj 392 239 expr (1024-$f1)/4000;
#X obj 412 259 expr (1024-$f1)/4000;
#X obj 432 279 expr (1024-$f1)/4000;
#X obj 452 299 expr (1024-$f1)/4000;
#X obj 44 440 vline~;
#X msg 44 421 \$1 200;
#X obj 105 438 vline~;
#X msg 105 419 \$1 200;
#X obj 164 437 vline~;
#X msg 164 418 \$1 200;
#X obj 225 435 vline~;
#X msg 225 416 \$1 200;
#X obj 284 440 vline~;
#X msg 284 421 \$1 200;
#X obj 345 438 vline~;
#X msg 345 419 \$1 200;
#X obj 404 437 vline~;
#X msg 404 418 \$1 200;
#X obj 465 435 vline~;
#X msg 465 416 \$1 200;
#X obj 773 529 dac~;
#X obj 772 476 *~;
#X obj 832 476 *~;
#X obj 892 476 *~;
#X obj 952 476 *~;
#X obj 1012 476 *~;
#X obj 1072 476 *~;
#X obj 1132 476 *~;
#X obj 1192 476 *~;
#X obj 893 529 dac~;
#X obj 1011 528 dac~;
#X obj 1131 526 dac~;
#X obj 784 440 vline~;
#X msg 784 421 \$1 200;
#X obj 845 438 vline~;
#X msg 845 419 \$1 200;
#X obj 904 437 vline~;
#X msg 904 418 \$1 200;
#X obj 965 435 vline~;
#X msg 965 416 \$1 200;
#X obj 1024 440 vline~;
#X msg 1024 421 \$1 200;
#X obj 1085 438 vline~;
#X msg 1085 419 \$1 200;
#X obj 1144 437 vline~;
#X msg 1144 418 \$1 200;
#X obj 1205 435 vline~;
#X msg 1205 416 \$1 200;
#X obj 432 115 unpack f f f f f f f f f f f f f f f f;
#X obj 903 159 expr (1024-$f1)/4000;
#X obj 923 179 expr (1024-$f1)/4000;
#X obj 943 199 expr (1024-$f1)/4000;
#X obj 962 219 expr (1024-$f1)/4000;
#X obj 983 239 expr (1024-$f1)/4000;
#X obj 1003 259 expr (1024-$f1)/4000;
#X obj 1023 279 expr (1024-$f1)/4000;
#X obj 1043 299 expr (1024-$f1)/4000;
#X obj 772 358 osc~ 101;
#X obj 832 358 osc~ 202;
#X obj 892 358 osc~ 303;
#X obj 952 358 osc~ 404;
#X obj 1012 358 osc~ 505;
#X obj 1072 358 osc~ 606;
#X obj 1132 358 osc~ 707;
#X obj 1192 358 osc~ 808;
#X obj 220 102 print OSC:;
#X connect 0 0 1 0;
#X connect 1 0 2 0;
#X connect 4 0 6 0;
#X connect 4 0 96 0;
#X connect 5 0 4 0;
#X connect 6 0 79 0;
#X connect 8 0 7 0;
#X connect 9 0 8 0;
#X connect 10 0 7 1;
#X connect 11 0 17 0;
#X connect 12 0 17 1;
#X connect 13 0 18 0;
#X connect 14 0 18 1;
#X connect 15 0 19 0;
#X connect 16 0 19 1;
#X connect 20 0 10 0;
#X connect 21 0 11 0;
#X connect 22 0 12 0;
#X connect 23 0 13 0;
#X connect 24 0 14 0;
#X connect 25 0 15 0;
#X connect 26 0 16 0;
#X connect 27 0 36 0;
#X connect 28 0 38 0;
#X connect 29 0 40 0;
#X connect 30 0 42 0;
#X connect 31 0 44 0;
#X connect 32 0 46 0;
#X connect 33 0 48 0;
#X connect 34 0 50 0;
#X connect 35 0 8 1;
#X connect 36 0 35 0;
#X connect 37 0 10 1;
#X connect 38 0 37 0;
#X connect 39 0 11 1;
#X connect 40 0 39 0;
#X connect 41 0 12 1;
#X connect 42 0 41 0;
#X connect 43 0 13 1;
#X connect 44 0 43 0;
#X connect 45 0 14 1;
#X connect 46 0 45 0;
#X connect 47 0 15 1;
#X connect 48 0 47 0;
#X connect 49 0 16 1;
#X connect 50 0 49 0;
#X connect 52 0 51 0;
#X connect 53 0 51 1;
#X connect 54 0 60 0;
#X connect 55 0 60 1;
#X connect 56 0 61 0;
#X connect 57 0 61 1;
#X connect 58 0 62 0;
#X connect 59 0 62 1;
#X connect 63 0 52 1;
#X connect 64 0 63 0;
#X connect 65 0 53 1;
#X connect 66 0 65 0;
#X connect 67 0 54 1;
#X connect 68 0 67 0;
#X connect 69 0 55 1;
#X connect 70 0 69 0;
#X connect 71 0 56 1;
#X connect 72 0 71 0;
#X connect 73 0 57 1;
#X connect 74 0 73 0;
#X connect 75 0 58 1;
#X connect 76 0 75 0;
#X connect 77 0 59 1;
#X connect 78 0 77 0;
#X connect 79 0 27 0;
#X connect 79 1 28 0;
#X connect 79 2 29 0;
#X connect 79 3 30 0;
#X connect 79 4 31 0;
#X connect 79 5 32 0;
#X connect 79 6 33 0;
#X connect 79 7 34 0;
#X connect 79 8 80 0;
#X connect 79 9 81 0;
#X connect 79 10 82 0;
#X connect 79 11 83 0;
#X connect 79 12 84 0;
#X connect 79 13 85 0;
#X connect 79 14 86 0;
#X connect 79 15 87 0;
#X connect 80 0 64 0;
#X connect 81 0 66 0;
#X connect 82 0 68 0;
#X connect 83 0 70 0;
#X connect 84 0 72 0;
#X connect 85 0 74 0;
#X connect 86 0 76 0;
#X connect 87 0 78 0;
#X connect 88 0 52 0;
#X connect 89 0 53 0;
#X connect 90 0 54 0;
#X connect 91 0 55 0;
#X connect 92 0 56 0;
#X connect 93 0 57 0;
#X connect 94 0 58 0;
#X connect 95 0 59 0;
