#N canvas 2294 206 1338 821 10;
#X obj 44 27 inlet;
#X obj 44 471 line;
#X obj 102 471 line;
#X obj 162 471 line;
#X obj 222 471 line;
#X obj 282 471 line;
#X obj 342 471 line;
#X obj 39 740 *~ 0;
#X obj 40 764 dac~;
#X obj 40 586 unpack f f f f f f f f;
#X obj 40 622 mtof;
#X obj 110 646 osc~;
#X obj 109 670 *~ 0;
#X obj 108 775 dac~;
#X obj 110 622 mtof;
#X obj 170 646 osc~;
#X obj 169 670 *~ 0;
#X obj 168 774 dac~;
#X obj 170 622 mtof;
#X obj 230 646 osc~;
#X obj 229 670 *~ 0;
#X obj 230 774 dac~;
#X obj 230 622 mtof;
#X obj 289 750 *~ 0;
#X obj 290 774 dac~;
#X obj 290 622 mtof;
#X obj 360 646 osc~;
#X obj 359 670 *~ 0;
#X obj 360 622 mtof;
#X obj 420 646 osc~;
#X obj 419 670 *~ 0;
#X obj 420 622 mtof;
#X obj 479 750 *~ 0;
#X obj 480 774 dac~;
#X obj 480 622 mtof;
#X obj 44 306 unpack f f f f f f f f;
#X obj 402 471 line;
#X obj 462 471 line;
#X obj 40 536 loadbang;
#X msg 40 562 60 62 62.05 65 67 69 69.02 72;
#X obj 40 650 phasor~;
#X obj 40 668 triangle~;
#X obj 866 87 inlet;
#X obj 926 87 inlet;
#X obj 986 87 inlet;
#X obj 290 650 phasor~;
#X obj 290 668 triangle~;
#X obj 290 687 vcf~ 5;
#X obj 480 650 phasor~;
#X obj 480 668 triangle~;
#X obj 480 687 vcf~ 5;
#X obj 108 755 pan~;
#X obj 168 754 pan~;
#X obj 230 747 pan~;
#X obj 189 733 * -1;
#X obj 358 775 dac~;
#X obj 418 774 dac~;
#X obj 358 755 pan~;
#X obj 418 754 pan~;
#X obj 379 734 * -1;
#X text 901 61 3 filter sweeps;
#X obj 866 191 vline~;
#X obj 926 207 vline~;
#X obj 986 221 vline~;
#X text 107 802 binaural beats;
#X text 367 802 binaural beats;
#X msg 44 96 0.4 0.03 0.1 0.17 0.2 0.17 0.1 0.03;
#X msg 64 115 0.2 0.1 0.2 0.1 0 0.1 0.2 0.1;
#X msg 84 134 0.1 0.17 0.1 0.03 0.2 0.03 0.1 0.17;
#X msg 105 153 0.2 0.25 0.2 0.15 0.1 0.05 0.01 0.01;
#X msg 139 194 0.2 0.1 0.2 0.1 0 0.1 0.2 0.1;
#X msg 120 174 0.3 0.17 0.2 0.03 0.2 0.03 0.1 0.17;
#X msg 152 213 0.3 0.03 0.1 0.17 0.2 0.17 0.1 0.03;
#X msg 166 233 0.2 0 0.2 0 0 0.2 0.3 0.2;
#X floatatom 866 147 5 0 0 0 - - -;
#X floatatom 926 164 5 0 0 0 - - -;
#X floatatom 986 181 5 0 0 0 - - -;
#X obj 986 162 expr 800+300*$f1;
#X obj 926 142 expr 700+200*$f1;
#X obj 866 122 expr 500+100*$f1;
#X obj 40 697 vcf~ 5;
#X obj 40 718 *~ 4;
#X obj 290 708 *~ 4;
#X obj 480 708 *~ 4;
#X text 95 517 8 voices no thirds 2 pairs of beat frequencies;
#X text 175 75 choral spaces:;
#X text 44 6 choral index;
#X obj 44 48 select 0 1 2 3 4 5 6 7;
#X msg 176 263 0 0 0 0 0 0 0 0;
#X msg 866 169 \$1 2000;
#X msg 926 185 \$1 2000;
#X msg 987 199 \$1 2000;
#X msg 44 449 \$1 800;
#X msg 102 449 \$1 800;
#X msg 162 449 \$1 800;
#X msg 222 449 \$1 800;
#X msg 282 449 \$1 800;
#X msg 342 450 \$1 800;
#X msg 402 449 \$1 800;
#X msg 462 449 \$1 800;
#X obj 472 75 inlet;
#X text 463 45 overall volume;
#X floatatom 472 216 5 0 0 0 - - -;
#X obj 472 123 expr (1023-$f1)/2000;
#X obj 129 382 *;
#X obj 155 382 *;
#X obj 179 382 *;
#X obj 205 382 *;
#X obj 229 382 *;
#X obj 255 382 *;
#X obj 279 382 *;
#X obj 305 382 *;
#X floatatom 133 703 5 0 0 0 - - -;
#X floatatom 253 705 5 0 0 0 - - -;
#X floatatom 438 699 5 0 0 0 - - -;
#X connect 0 0 87 0;
#X connect 1 0 7 1;
#X connect 2 0 12 1;
#X connect 3 0 16 1;
#X connect 4 0 20 1;
#X connect 5 0 23 1;
#X connect 6 0 27 1;
#X connect 7 0 8 0;
#X connect 7 0 8 1;
#X connect 9 0 10 0;
#X connect 9 1 14 0;
#X connect 9 2 18 0;
#X connect 9 3 22 0;
#X connect 9 4 25 0;
#X connect 9 5 28 0;
#X connect 9 6 31 0;
#X connect 9 7 34 0;
#X connect 10 0 40 0;
#X connect 11 0 12 0;
#X connect 12 0 51 0;
#X connect 14 0 11 0;
#X connect 15 0 16 0;
#X connect 16 0 52 0;
#X connect 18 0 15 0;
#X connect 19 0 20 0;
#X connect 20 0 53 0;
#X connect 22 0 19 0;
#X connect 23 0 24 0;
#X connect 23 0 24 1;
#X connect 25 0 45 0;
#X connect 26 0 27 0;
#X connect 27 0 57 0;
#X connect 28 0 26 0;
#X connect 29 0 30 0;
#X connect 30 0 58 0;
#X connect 31 0 29 0;
#X connect 32 0 33 1;
#X connect 32 0 33 0;
#X connect 34 0 48 0;
#X connect 35 0 104 0;
#X connect 35 1 105 0;
#X connect 35 2 106 0;
#X connect 35 3 107 0;
#X connect 35 4 108 0;
#X connect 35 5 109 0;
#X connect 35 6 110 0;
#X connect 35 7 111 0;
#X connect 36 0 30 1;
#X connect 37 0 32 1;
#X connect 38 0 39 0;
#X connect 39 0 9 0;
#X connect 40 0 41 0;
#X connect 41 0 80 0;
#X connect 45 0 46 0;
#X connect 46 0 47 0;
#X connect 47 0 82 0;
#X connect 48 0 49 0;
#X connect 49 0 50 0;
#X connect 50 0 83 0;
#X connect 51 0 13 0;
#X connect 51 1 13 1;
#X connect 52 0 17 0;
#X connect 52 1 17 1;
#X connect 53 0 21 0;
#X connect 53 1 21 1;
#X connect 54 0 52 1;
#X connect 57 0 55 0;
#X connect 57 1 55 1;
#X connect 58 0 56 0;
#X connect 58 1 56 1;
#X connect 59 0 57 1;
#X connect 61 0 80 1;
#X connect 62 0 47 1;
#X connect 63 0 50 1;
#X connect 66 0 35 0;
#X connect 67 0 35 0;
#X connect 68 0 35 0;
#X connect 69 0 35 0;
#X connect 70 0 35 0;
#X connect 71 0 35 0;
#X connect 72 0 35 0;
#X connect 73 0 35 0;
#X connect 74 0 89 0;
#X connect 75 0 90 0;
#X connect 76 0 91 0;
#X connect 77 0 76 0;
#X connect 78 0 75 0;
#X connect 79 0 74 0;
#X connect 80 0 81 0;
#X connect 81 0 7 0;
#X connect 82 0 23 0;
#X connect 83 0 32 0;
#X connect 87 0 66 0;
#X connect 87 1 67 0;
#X connect 87 2 68 0;
#X connect 87 3 69 0;
#X connect 87 4 71 0;
#X connect 87 5 70 0;
#X connect 87 6 72 0;
#X connect 87 7 73 0;
#X connect 87 8 88 0;
#X connect 88 0 35 0;
#X connect 89 0 61 0;
#X connect 90 0 62 0;
#X connect 91 0 63 0;
#X connect 92 0 1 0;
#X connect 93 0 2 0;
#X connect 94 0 3 0;
#X connect 95 0 4 0;
#X connect 96 0 5 0;
#X connect 97 0 6 0;
#X connect 98 0 36 0;
#X connect 99 0 37 0;
#X connect 100 0 103 0;
#X connect 102 0 104 1;
#X connect 102 0 105 1;
#X connect 102 0 106 1;
#X connect 102 0 107 1;
#X connect 102 0 108 1;
#X connect 102 0 109 1;
#X connect 102 0 110 1;
#X connect 102 0 111 1;
#X connect 103 0 102 0;
#X connect 104 0 92 0;
#X connect 105 0 93 0;
#X connect 106 0 94 0;
#X connect 107 0 95 0;
#X connect 108 0 96 0;
#X connect 109 0 97 0;
#X connect 110 0 98 0;
#X connect 111 0 99 0;
#X connect 112 0 51 1;
#X connect 112 0 54 1;
#X connect 113 0 53 1;
#X connect 114 0 59 1;
#X connect 114 0 58 1;
