#N canvas 928 242 701 783 10;
#X declare -lib mrpeach;
#X obj 719 11 loadbang;
#X obj 719 32 delay 100;
#X msg 719 56 \; pd dsp 1;
#X obj 574 22 import mrpeach;
#X obj 72 49 unpackOSC;
#X obj 72 30 udpreceive 8000;
#X obj 211 47 print OSC:;
#X obj 209 218 normalize_IR8;
#X obj 209 139 unpack f f f f f f f f f f f f f f f f;
#X obj 359 217 normalize_IR8;
#X obj 70 81 routeOSC /extrema /photodiode;
#X floatatom 51 174 5 0 0 0 - - -;
#X floatatom 78 194 5 0 0 0 - - -;
#X floatatom 359 407 5 0 0 0 - - -;
#X floatatom 393 407 5 0 0 0 - - -;
#X floatatom 427 407 5 0 0 0 - - -;
#X obj 51 149 unpack f f f f;
#X floatatom 105 174 5 0 0 0 - - -;
#X floatatom 132 194 5 0 0 0 - - -;
#X floatatom 81 417 5 0 0 0 - - -;
#X floatatom 115 417 5 0 0 0 - - -;
#X floatatom 149 417 5 0 0 0 - - -;
#X obj 51 455 chorus_filterL;
#X obj 329 458 chorus_filterR;
#X connect 0 0 1 0;
#X connect 1 0 2 0;
#X connect 4 0 10 0;
#X connect 5 0 4 0;
#X connect 7 0 19 0;
#X connect 7 3 20 0;
#X connect 7 6 21 0;
#X connect 8 0 7 0;
#X connect 8 1 7 1;
#X connect 8 2 7 2;
#X connect 8 3 7 3;
#X connect 8 4 7 4;
#X connect 8 5 7 5;
#X connect 8 6 7 6;
#X connect 8 7 7 7;
#X connect 8 8 9 0;
#X connect 8 9 9 1;
#X connect 8 10 9 2;
#X connect 8 11 9 3;
#X connect 8 12 9 4;
#X connect 8 13 9 5;
#X connect 8 14 9 6;
#X connect 8 15 9 7;
#X connect 9 1 13 0;
#X connect 9 4 14 0;
#X connect 9 7 15 0;
#X connect 10 0 16 0;
#X connect 10 1 8 0;
#X connect 11 0 22 0;
#X connect 12 0 22 1;
#X connect 13 0 23 2;
#X connect 14 0 23 3;
#X connect 15 0 23 4;
#X connect 16 0 11 0;
#X connect 16 1 12 0;
#X connect 16 2 17 0;
#X connect 16 3 18 0;
#X connect 17 0 23 0;
#X connect 18 0 23 1;
#X connect 19 0 22 2;
#X connect 20 0 22 3;
#X connect 21 0 22 4;
