#N canvas 205 196 1158 544 10;
#X obj 30 472 dac~;
#X obj 30 322 mtof;
#X obj 210 346 osc~;
#X obj 210 470 dac~;
#X obj 210 322 mtof;
#X obj 480 346 osc~;
#X obj 480 474 dac~;
#X obj 480 322 mtof;
#X obj 620 474 dac~;
#X obj 620 322 mtof;
#X obj 740 346 osc~;
#X obj 740 322 mtof;
#X obj 1040 346 osc~;
#X obj 1040 322 mtof;
#X obj 860 474 dac~;
#X obj 860 322 mtof;
#X obj 30 350 phasor~;
#X obj 30 368 triangle~;
#X obj 620 350 phasor~;
#X obj 620 368 triangle~;
#X obj 860 350 phasor~;
#X obj 740 475 dac~;
#X obj 1038 474 dac~;
#X obj 340 471 dac~;
#X obj 340 322 mtof;
#X obj 340 350 phasor~;
#X obj 340 368 triangle~;
#X obj 859 371 triangle~;
#X obj 30 300 + 0;
#X obj 210 301 + 2;
#X obj 340 302 + 5;
#X obj 480 302 + 7;
#X obj 620 302 + 10;
#X obj 740 302 + 12;
#X obj 860 298 + 17;
#X obj 1040 302 + 19;
#X obj 79 106 inlet;
#X text 63 82 key (midi value);
#X text 765 21 amplitudes;
#X obj 592 180 vline~;
#X obj 592 50 inlet;
#X obj 642 50 inlet;
#X obj 692 50 inlet;
#X obj 742 50 inlet;
#X obj 792 50 inlet;
#X obj 842 50 inlet;
#X obj 892 50 inlet;
#X obj 941 28 inlet;
#X floatatom 592 71 5 0 0 0 - - -;
#X floatatom 642 71 5 0 0 0 - - -;
#X floatatom 692 71 5 0 0 0 - - -;
#X floatatom 742 71 5 0 0 0 - - -;
#X floatatom 792 71 5 0 0 0 - - -;
#X floatatom 842 71 5 0 0 0 - - -;
#X floatatom 892 71 5 0 0 0 - - -;
#X msg 592 158 \$1 400;
#X msg 642 158 \$1 400;
#X msg 692 158 \$1 400;
#X msg 742 158 \$1 400;
#X msg 792 158 \$1 400;
#X msg 842 158 \$1 400;
#X msg 892 158 \$1 400;
#X msg 942 158 \$1 400;
#X obj 642 180 vline~;
#X obj 692 180 vline~;
#X obj 742 180 vline~;
#X obj 792 180 vline~;
#X obj 842 180 vline~;
#X obj 892 180 vline~;
#X obj 942 180 vline~;
#X obj 29 448 *~;
#X obj 209 446 *~;
#X obj 339 447 *~;
#X obj 479 449 *~;
#X obj 619 450 *~;
#X obj 739 443 *~;
#X obj 859 450 *~;
#X obj 1037 443 *~;
#X obj 1031 38 pink~;
#X obj 1030 61 *~ 1e-07;
#X obj 1030 86 snapshot~;
#X obj 592 133 +;
#X obj 642 133 +;
#X obj 692 133 +;
#X obj 742 133 +;
#X obj 792 133 +;
#X obj 842 133 +;
#X obj 892 133 +;
#X obj 942 133 +;
#X obj 941 49 t f b;
#X floatatom 941 71 5 0 0 0 - - -;
#X obj 607 107 r pink;
#X obj 657 107 r pink;
#X obj 707 107 r pink;
#X obj 757 107 r pink;
#X obj 807 107 r pink;
#X obj 857 107 r pink;
#X obj 907 107 r pink;
#X obj 957 107 r pink;
#X obj 1030 109 s pink;
#X connect 1 0 16 0;
#X connect 2 0 71 0;
#X connect 4 0 2 0;
#X connect 5 0 73 0;
#X connect 7 0 5 0;
#X connect 9 0 18 0;
#X connect 10 0 75 0;
#X connect 11 0 10 0;
#X connect 12 0 77 0;
#X connect 13 0 12 0;
#X connect 15 0 20 0;
#X connect 16 0 17 0;
#X connect 17 0 70 0;
#X connect 18 0 19 0;
#X connect 19 0 74 0;
#X connect 20 0 27 0;
#X connect 24 0 25 0;
#X connect 25 0 26 0;
#X connect 26 0 72 0;
#X connect 27 0 76 0;
#X connect 28 0 1 0;
#X connect 29 0 4 0;
#X connect 30 0 24 0;
#X connect 31 0 7 0;
#X connect 32 0 9 0;
#X connect 33 0 11 0;
#X connect 34 0 15 0;
#X connect 35 0 13 0;
#X connect 36 0 28 0;
#X connect 36 0 29 0;
#X connect 36 0 30 0;
#X connect 36 0 31 0;
#X connect 36 0 32 0;
#X connect 36 0 33 0;
#X connect 36 0 34 0;
#X connect 36 0 35 0;
#X connect 39 0 70 1;
#X connect 40 0 48 0;
#X connect 41 0 49 0;
#X connect 42 0 50 0;
#X connect 43 0 51 0;
#X connect 44 0 52 0;
#X connect 45 0 53 0;
#X connect 46 0 54 0;
#X connect 47 0 89 0;
#X connect 48 0 81 0;
#X connect 49 0 82 0;
#X connect 50 0 83 0;
#X connect 51 0 84 0;
#X connect 52 0 85 0;
#X connect 53 0 86 0;
#X connect 54 0 87 0;
#X connect 55 0 39 0;
#X connect 56 0 63 0;
#X connect 57 0 64 0;
#X connect 58 0 65 0;
#X connect 59 0 66 0;
#X connect 60 0 67 0;
#X connect 61 0 68 0;
#X connect 62 0 69 0;
#X connect 63 0 71 1;
#X connect 64 0 72 1;
#X connect 65 0 73 1;
#X connect 66 0 74 1;
#X connect 67 0 75 1;
#X connect 68 0 76 1;
#X connect 69 0 77 1;
#X connect 70 0 0 0;
#X connect 70 0 0 1;
#X connect 71 0 3 0;
#X connect 71 0 3 1;
#X connect 72 0 23 0;
#X connect 72 0 23 1;
#X connect 73 0 6 0;
#X connect 73 0 6 1;
#X connect 74 0 8 0;
#X connect 74 0 8 1;
#X connect 75 0 21 0;
#X connect 75 0 21 1;
#X connect 76 0 14 1;
#X connect 76 0 14 0;
#X connect 77 0 22 0;
#X connect 77 0 22 1;
#X connect 78 0 79 0;
#X connect 79 0 80 0;
#X connect 80 0 99 0;
#X connect 81 0 55 0;
#X connect 82 0 56 0;
#X connect 83 0 57 0;
#X connect 84 0 58 0;
#X connect 85 0 59 0;
#X connect 86 0 60 0;
#X connect 87 0 61 0;
#X connect 88 0 62 0;
#X connect 89 0 90 0;
#X connect 89 1 80 0;
#X connect 90 0 88 0;
#X connect 91 0 81 1;
#X connect 92 0 82 1;
#X connect 93 0 83 1;
#X connect 94 0 84 1;
#X connect 95 0 85 1;
#X connect 96 0 86 1;
#X connect 97 0 87 1;
#X connect 98 0 88 1;
