#N canvas 673 265 631 475 10;
#X obj 24 58 pack f f f;
#X obj 24 13 inlet;
#X obj 24 338 outlet~;
#X obj 64 282 fmvoice~;
#X obj 127 57 inlet;
#X obj 197 76 inlet;
#X text 128 29 harmonic;
#X text 199 54 index;
#X obj 24 222 fmvoice~;
#X obj 44 252 fmvoice~;
#X obj 261 117 inlet;
#X obj 324 171 inlet;
#X text 257 95 attack;
#X text 323 146 decay;
#X obj 24 35 poly 3 1;
#X obj 24 81 route 1 2 3;
#X connect 0 0 15 0;
#X connect 1 0 14 0;
#X connect 3 0 2 0;
#X connect 4 0 3 1;
#X connect 4 0 8 1;
#X connect 4 0 9 1;
#X connect 5 0 3 2;
#X connect 5 0 8 2;
#X connect 5 0 9 2;
#X connect 8 0 2 0;
#X connect 9 0 2 0;
#X connect 10 0 8 3;
#X connect 10 0 9 3;
#X connect 10 0 3 3;
#X connect 11 0 8 4;
#X connect 11 0 9 4;
#X connect 11 0 3 4;
#X connect 14 0 0 0;
#X connect 14 1 0 1;
#X connect 14 2 0 2;
#X connect 15 0 8 0;
#X connect 15 1 9 0;
#X connect 15 2 3 0;
