#N canvas 172 144 1138 571 10;
#X obj 549 31 loadbang;
#X obj 549 52 delay 100;
#X msg 549 76 \; pd dsp 1;
#X obj 209 328 normalize_IR8;
#X obj 209 249 unpack f f f f f f f f f f f f f f f f;
#X obj 359 327 normalize_IR8;
#X floatatom 70 244 5 0 0 0 - - -;
#X obj 51 546 chorusfilter_nobeating;
#X obj 65 324 + 50;
#X obj 98 325 + 57.1;
#X obj 387 550 chorusfilter_nobeating;
#X obj 70 44 netreceive 8000;
#X obj 70 81 route cof bs hit;
#X obj 620 348 fmpoly6;
#X obj 620 393 dac~;
#X obj 620 251 unpack f f;
#X obj 620 284 + 60;
#X obj 620 317 pack f f;
#X obj 677 282 / 1024;
#X connect 0 0 1 0;
#X connect 1 0 2 0;
#X connect 3 0 7 1;
#X connect 3 1 7 2;
#X connect 3 2 7 3;
#X connect 3 3 7 4;
#X connect 3 4 7 5;
#X connect 3 5 7 6;
#X connect 3 6 7 7;
#X connect 3 7 7 8;
#X connect 4 0 3 0;
#X connect 4 1 3 1;
#X connect 4 2 3 2;
#X connect 4 3 3 3;
#X connect 4 4 3 4;
#X connect 4 5 3 5;
#X connect 4 6 3 6;
#X connect 4 7 3 7;
#X connect 4 8 5 0;
#X connect 4 9 5 1;
#X connect 4 10 5 2;
#X connect 4 11 5 3;
#X connect 4 12 5 4;
#X connect 4 13 5 5;
#X connect 4 14 5 6;
#X connect 4 15 5 7;
#X connect 5 0 10 1;
#X connect 5 1 10 2;
#X connect 5 2 10 3;
#X connect 5 3 10 4;
#X connect 5 4 10 5;
#X connect 5 5 10 6;
#X connect 5 6 10 7;
#X connect 5 7 10 8;
#X connect 6 0 8 0;
#X connect 6 0 9 0;
#X connect 8 0 7 0;
#X connect 8 0 16 1;
#X connect 9 0 10 0;
#X connect 11 0 12 0;
#X connect 12 0 6 0;
#X connect 12 1 4 0;
#X connect 12 2 15 0;
#X connect 13 0 14 0;
#X connect 13 0 14 1;
#X connect 15 0 16 0;
#X connect 15 1 18 0;
#X connect 16 0 17 0;
#X connect 17 0 13 0;
#X connect 18 0 17 1;
