#N canvas 615 255 450 300 10;
#X obj 141 79 netreceive 8000;
#X obj 69 144 print STUFF;
#X obj 167 138 unpack f f f f f f f f f f f f f f f f;
#X floatatom 142 191 5 0 0 0 - - -;
#X floatatom 158 216 5 0 0 0 - - -;
#X floatatom 172 237 5 0 0 0 - - -;
#X floatatom 191 256 5 0 0 0 - - -;
#X floatatom 217 184 5 0 0 0 - - -;
#X floatatom 233 208 5 0 0 0 - - -;
#X floatatom 248 234 5 0 0 0 - - -;
#X floatatom 258 256 5 0 0 0 - - -;
#X floatatom 292 181 5 0 0 0 - - -;
#X floatatom 308 206 5 0 0 0 - - -;
#X floatatom 322 227 5 0 0 0 - - -;
#X floatatom 341 246 5 0 0 0 - - -;
#X floatatom 367 174 5 0 0 0 - - -;
#X floatatom 383 198 5 0 0 0 - - -;
#X floatatom 398 224 5 0 0 0 - - -;
#X floatatom 408 246 5 0 0 0 - - -;
#X connect 0 0 2 0;
#X connect 0 0 1 0;
#X connect 2 0 3 0;
#X connect 2 1 4 0;
#X connect 2 2 5 0;
#X connect 2 3 6 0;
#X connect 2 4 7 0;
#X connect 2 5 8 0;
#X connect 2 6 9 0;
#X connect 2 7 10 0;
#X connect 2 8 11 0;
#X connect 2 9 12 0;
#X connect 2 10 13 0;
#X connect 2 11 14 0;
#X connect 2 12 15 0;
#X connect 2 13 16 0;
#X connect 2 14 17 0;
#X connect 2 15 18 0;
