#N canvas 2032 197 701 738 10;
#X obj 39 21 loadbang;
#X obj 39 42 delay 100;
#X msg 39 66 \; pd dsp 1;
#X obj 209 288 normalize_IR8;
#X obj 209 209 unpack f f f f f f f f f f f f f f f f;
#X obj 359 287 normalize_IR8;
#X floatatom 70 224 5 0 0 0 - - -;
#X obj 51 526 chorusfilter_nobeating;
#X obj 65 304 + 50;
#X obj 98 305 + 57.1;
#X obj 387 530 chorusfilter_nobeating;
#X msg 217 150 400 500 600 700 800 900 1000 1023 600 650 700 750 800
850 900 1023;
#X msg 131 181 0;
#X obj 217 121 metro 30;
#X obj 217 103 tgl 15 0 empty empty empty 17 7 0 10 -262144 -1 -1 0
1;
#X msg 217 83 1;
#X connect 0 0 1 0;
#X connect 0 0 15 0;
#X connect 1 0 2 0;
#X connect 3 0 7 1;
#X connect 3 1 7 2;
#X connect 3 2 7 3;
#X connect 3 3 7 4;
#X connect 3 4 7 5;
#X connect 3 5 7 6;
#X connect 3 6 7 7;
#X connect 3 7 7 8;
#X connect 4 0 3 0;
#X connect 4 1 3 1;
#X connect 4 2 3 2;
#X connect 4 3 3 3;
#X connect 4 4 3 4;
#X connect 4 5 3 5;
#X connect 4 6 3 6;
#X connect 4 7 3 7;
#X connect 4 8 5 0;
#X connect 4 9 5 1;
#X connect 4 10 5 2;
#X connect 4 11 5 3;
#X connect 4 12 5 4;
#X connect 4 13 5 5;
#X connect 4 14 5 6;
#X connect 4 15 5 7;
#X connect 5 0 10 1;
#X connect 5 1 10 2;
#X connect 5 2 10 3;
#X connect 5 3 10 4;
#X connect 5 4 10 5;
#X connect 5 5 10 6;
#X connect 5 6 10 7;
#X connect 5 7 10 8;
#X connect 6 0 8 0;
#X connect 6 0 9 0;
#X connect 8 0 7 0;
#X connect 9 0 10 0;
#X connect 11 0 4 0;
#X connect 12 0 6 0;
#X connect 13 0 11 0;
#X connect 13 0 12 0;
#X connect 14 0 13 0;
#X connect 15 0 14 0;
