#N canvas 2032 194 701 571 10;
#X declare -lib mrpeach;
#X obj 549 31 loadbang;
#X obj 549 52 delay 100;
#X msg 549 76 \; pd dsp 1;
#X obj 404 42 import mrpeach;
#X obj 72 49 unpackOSC;
#X obj 72 30 udpreceive 8000;
#X obj 209 218 normalize_IR8;
#X obj 209 139 unpack f f f f f f f f f f f f f f f f;
#X obj 359 217 normalize_IR8;
#X floatatom 70 154 5 0 0 0 - - -;
#X obj 51 456 chorusfilter_nobeating;
#X obj 70 81 routeOSC /cof /photodiode;
#X obj 65 234 + 50;
#X obj 98 235 + 57.1;
#X obj 387 460 chorusfilter_nobeating;
#X connect 0 0 1 0;
#X connect 1 0 2 0;
#X connect 4 0 11 0;
#X connect 5 0 4 0;
#X connect 6 0 10 1;
#X connect 6 1 10 2;
#X connect 6 2 10 3;
#X connect 6 3 10 4;
#X connect 6 4 10 5;
#X connect 6 5 10 6;
#X connect 6 6 10 7;
#X connect 6 7 10 8;
#X connect 7 0 6 0;
#X connect 7 1 6 1;
#X connect 7 2 6 2;
#X connect 7 3 6 3;
#X connect 7 4 6 4;
#X connect 7 5 6 5;
#X connect 7 6 6 6;
#X connect 7 7 6 7;
#X connect 7 8 8 0;
#X connect 7 9 8 1;
#X connect 7 10 8 2;
#X connect 7 11 8 3;
#X connect 7 12 8 4;
#X connect 7 13 8 5;
#X connect 7 14 8 6;
#X connect 7 15 8 7;
#X connect 8 0 14 1;
#X connect 8 1 14 2;
#X connect 8 2 14 3;
#X connect 8 3 14 4;
#X connect 8 4 14 5;
#X connect 8 5 14 6;
#X connect 8 6 14 7;
#X connect 8 7 14 8;
#X connect 9 0 12 0;
#X connect 9 0 13 0;
#X connect 11 0 9 0;
#X connect 11 1 7 0;
#X connect 12 0 10 0;
#X connect 13 0 14 0;
