#N canvas 129 143 1138 569 10;
#X obj 1029 31 loadbang;
#X obj 1029 52 delay 100;
#X msg 1029 76 \; pd dsp 1;
#X obj 210 428 normalize_IR8;
#X obj 210 349 unpack f f f f f f f f f f f f f f f f;
#X obj 360 427 normalize_IR8;
#X floatatom 147 124 5 0 0 0 - - -;
#X obj 156 486 chorusfilter_nobeating;
#X obj 97 184 + 50;
#X obj 147 184 + 57.1;
#X obj 306 486 chorusfilter_nobeating;
#X obj 179 38 netreceive 8000;
#X obj 640 81 unpack f f;
#X obj 640 124 + 60;
#X obj 640 167 pack f f;
#X obj 97 204 s keyL;
#X obj 147 204 s keyR;
#X obj 156 440 r keyL;
#X obj 306 440 r keyR;
#X obj 697 132 / 2048;
#X obj 243 268 unpack f f;
#X obj 243 289 s aveL;
#X obj 300 289 s aveR;
#X obj 274 218 unpack f f;
#X obj 307 172 unpack f f;
#X obj 274 239 s rollL;
#X obj 331 239 s rollR;
#X obj 307 193 s yawL;
#X obj 364 193 s yawR;
#X obj 661 105 r keyR;
#X obj 339 143 s hitL;
#X obj 371 122 s hitR;
#X obj 640 48 r hitL;
#X text 197 60 cof and hits are spontaneous \, all others are continuous
;
#X obj 790 81 unpack f f;
#X obj 790 124 + 60;
#X obj 790 167 pack f f;
#X obj 847 132 / 2048;
#X obj 790 48 r hitR;
#X obj 811 105 r keyL;
#X obj 43 190 + 2;
#X text 416 220 -512 to 512;
#X text 386 260 -512 to 512;
#X text 352 307 0 to 1023;
#X floatatom 368 290 5 0 0 0 - - -;
#X floatatom 441 243 5 0 0 0 - - -;
#X floatatom 448 198 5 0 0 0 - - -;
#X obj 649 192 r FMharmonic;
#X obj 799 192 r FMharmonic;
#X obj 43 246 s FMharmonic;
#X obj 678 510 cpdelay~;
#X obj 639 484 spigot~;
#X obj 640 542 dac~;
#X obj 179 81 route cof bs aves rolls yaws hitL hitR modeselektor;
#X obj 467 128 s delayswitch;
#X obj 698 345 r delayswitch;
#X obj 698 365 tgl 15 0 empty empty empty 17 7 0 10 -262144 -1 -1 1
1;
#X obj 828 510 cpdelay~;
#X obj 789 484 spigot~;
#X obj 790 542 dac~;
#X obj 700 459 r rollR;
#X obj 700 478 + 512;
#X obj 850 479 + 512;
#X obj 679 281 r aveR;
#X obj 829 278 r aveL;
#X obj 850 460 r rollL;
#X obj 659 215 r yawR;
#X obj 809 215 r yawL;
#X obj 659 238 expr 512+$f1*2;
#X obj 809 239 expr 512+$f1*2;
#X obj 640 323 fmpoly6;
#X obj 790 323 fmpoly6;
#X obj 679 303 * 1.6;
#X obj 829 303 * 1.6;
#X connect 0 0 1 0;
#X connect 1 0 2 0;
#X connect 3 0 7 1;
#X connect 3 1 7 2;
#X connect 3 2 7 3;
#X connect 3 3 7 4;
#X connect 3 4 7 5;
#X connect 3 5 7 6;
#X connect 3 6 7 7;
#X connect 3 7 7 8;
#X connect 4 0 3 0;
#X connect 4 1 3 1;
#X connect 4 2 3 2;
#X connect 4 3 3 3;
#X connect 4 4 3 4;
#X connect 4 5 3 5;
#X connect 4 6 3 6;
#X connect 4 7 3 7;
#X connect 4 8 5 0;
#X connect 4 9 5 1;
#X connect 4 10 5 2;
#X connect 4 11 5 3;
#X connect 4 12 5 4;
#X connect 4 13 5 5;
#X connect 4 14 5 6;
#X connect 4 15 5 7;
#X connect 5 0 10 1;
#X connect 5 1 10 2;
#X connect 5 2 10 3;
#X connect 5 3 10 4;
#X connect 5 4 10 5;
#X connect 5 5 10 6;
#X connect 5 6 10 7;
#X connect 5 7 10 8;
#X connect 6 0 8 0;
#X connect 6 0 9 0;
#X connect 6 0 40 0;
#X connect 8 0 15 0;
#X connect 9 0 16 0;
#X connect 11 0 53 0;
#X connect 12 0 13 0;
#X connect 12 1 19 0;
#X connect 13 0 14 0;
#X connect 14 0 70 0;
#X connect 17 0 7 0;
#X connect 18 0 10 0;
#X connect 19 0 14 1;
#X connect 20 0 21 0;
#X connect 20 0 44 0;
#X connect 20 1 22 0;
#X connect 23 0 25 0;
#X connect 23 0 45 0;
#X connect 23 1 26 0;
#X connect 24 0 27 0;
#X connect 24 0 46 0;
#X connect 24 1 28 0;
#X connect 29 0 13 1;
#X connect 32 0 12 0;
#X connect 34 0 35 0;
#X connect 34 1 37 0;
#X connect 35 0 36 0;
#X connect 36 0 71 0;
#X connect 37 0 36 1;
#X connect 38 0 34 0;
#X connect 39 0 35 1;
#X connect 40 0 49 0;
#X connect 47 0 70 1;
#X connect 48 0 71 1;
#X connect 50 0 52 0;
#X connect 50 0 52 1;
#X connect 51 0 52 0;
#X connect 51 0 52 1;
#X connect 51 1 50 0;
#X connect 53 0 6 0;
#X connect 53 1 4 0;
#X connect 53 2 20 0;
#X connect 53 3 23 0;
#X connect 53 4 24 0;
#X connect 53 5 30 0;
#X connect 53 6 31 0;
#X connect 53 7 54 0;
#X connect 55 0 56 0;
#X connect 56 0 51 1;
#X connect 56 0 58 1;
#X connect 57 0 59 0;
#X connect 57 0 59 1;
#X connect 58 0 59 0;
#X connect 58 0 59 1;
#X connect 58 1 57 0;
#X connect 60 0 61 0;
#X connect 61 0 50 1;
#X connect 62 0 57 1;
#X connect 63 0 72 0;
#X connect 64 0 73 0;
#X connect 65 0 62 0;
#X connect 66 0 68 0;
#X connect 67 0 69 0;
#X connect 68 0 70 2;
#X connect 69 0 71 2;
#X connect 70 0 51 0;
#X connect 71 0 58 0;
#X connect 72 0 70 4;
#X connect 73 0 71 4;
