#N canvas 129 141 1138 569 10;
#X obj 609 31 loadbang;
#X obj 609 52 delay 100;
#X msg 609 76 \; pd dsp 1;
#X obj 210 428 normalize_IR8;
#X obj 210 349 unpack f f f f f f f f f f f f f f f f;
#X obj 360 427 normalize_IR8;
#X floatatom 147 124 5 0 0 0 - - -;
#X obj 156 486 chorusfilter_nobeating;
#X obj 97 184 + 50;
#X obj 147 184 + 57.1;
#X obj 306 486 chorusfilter_nobeating;
#X obj 179 38 netreceive 8000;
#X obj 590 463 dac~;
#X obj 590 181 unpack f f;
#X obj 590 224 + 60;
#X obj 590 267 pack f f;
#X obj 97 204 s keyL;
#X obj 147 204 s keyR;
#X obj 156 440 r keyL;
#X obj 306 440 r keyR;
#X obj 647 232 / 2048;
#X obj 590 423 fmpoly3;
#X obj 243 268 unpack f f;
#X obj 243 289 s aveL;
#X obj 300 289 s aveR;
#X obj 274 218 unpack f f;
#X obj 307 172 unpack f f;
#X obj 274 239 s rollL;
#X obj 331 239 s rollR;
#X obj 307 193 s yawL;
#X obj 364 193 s yawR;
#X obj 611 205 r keyR;
#X obj 609 315 r rollR;
#X obj 179 81 route cof bs aves rolls yaws hitL hitR;
#X obj 339 143 s hitL;
#X obj 371 122 s hitR;
#X obj 590 148 r hitL;
#X text 197 60 cof and hits are spontaneous \, all others are continuous
;
#X obj 740 181 unpack f f;
#X obj 740 224 + 60;
#X obj 740 267 pack f f;
#X obj 797 232 / 2048;
#X obj 740 423 fmpoly3;
#X obj 740 148 r hitR;
#X obj 761 205 r keyL;
#X obj 759 315 r rollL;
#X obj 43 190 + 2;
#X text 416 220 -512 to 512;
#X text 386 260 -512 to 512;
#X text 352 307 0 to 1023;
#X obj 609 338 + 512;
#X obj 759 338 + 512;
#X obj 629 361 r yawR;
#X obj 779 361 r yawL;
#X floatatom 368 290 5 0 0 0 - - -;
#X floatatom 441 243 5 0 0 0 - - -;
#X floatatom 448 198 5 0 0 0 - - -;
#X obj 599 292 r FMharmonic;
#X obj 749 292 r FMharmonic;
#X obj 43 246 s FMharmonic;
#X obj 629 381 expr 512+$f1*3;
#X obj 779 391 expr 512+$f1*3;
#X connect 0 0 1 0;
#X connect 1 0 2 0;
#X connect 3 0 7 1;
#X connect 3 1 7 2;
#X connect 3 2 7 3;
#X connect 3 3 7 4;
#X connect 3 4 7 5;
#X connect 3 5 7 6;
#X connect 3 6 7 7;
#X connect 3 7 7 8;
#X connect 4 0 3 0;
#X connect 4 1 3 1;
#X connect 4 2 3 2;
#X connect 4 3 3 3;
#X connect 4 4 3 4;
#X connect 4 5 3 5;
#X connect 4 6 3 6;
#X connect 4 7 3 7;
#X connect 4 8 5 0;
#X connect 4 9 5 1;
#X connect 4 10 5 2;
#X connect 4 11 5 3;
#X connect 4 12 5 4;
#X connect 4 13 5 5;
#X connect 4 14 5 6;
#X connect 4 15 5 7;
#X connect 5 0 10 1;
#X connect 5 1 10 2;
#X connect 5 2 10 3;
#X connect 5 3 10 4;
#X connect 5 4 10 5;
#X connect 5 5 10 6;
#X connect 5 6 10 7;
#X connect 5 7 10 8;
#X connect 6 0 8 0;
#X connect 6 0 9 0;
#X connect 6 0 46 0;
#X connect 8 0 16 0;
#X connect 9 0 17 0;
#X connect 11 0 33 0;
#X connect 13 0 14 0;
#X connect 13 1 20 0;
#X connect 14 0 15 0;
#X connect 15 0 21 0;
#X connect 18 0 7 0;
#X connect 19 0 10 0;
#X connect 20 0 15 1;
#X connect 21 0 12 0;
#X connect 21 0 12 1;
#X connect 22 0 23 0;
#X connect 22 0 54 0;
#X connect 22 1 24 0;
#X connect 25 0 27 0;
#X connect 25 0 55 0;
#X connect 25 1 28 0;
#X connect 26 0 29 0;
#X connect 26 0 56 0;
#X connect 26 1 30 0;
#X connect 31 0 14 1;
#X connect 32 0 50 0;
#X connect 33 0 6 0;
#X connect 33 1 4 0;
#X connect 33 2 22 0;
#X connect 33 3 25 0;
#X connect 33 4 26 0;
#X connect 33 5 34 0;
#X connect 33 6 35 0;
#X connect 36 0 13 0;
#X connect 38 0 39 0;
#X connect 38 1 41 0;
#X connect 39 0 40 0;
#X connect 40 0 42 0;
#X connect 41 0 40 1;
#X connect 43 0 38 0;
#X connect 44 0 39 1;
#X connect 45 0 51 0;
#X connect 46 0 59 0;
#X connect 50 0 21 2;
#X connect 51 0 42 2;
#X connect 52 0 60 0;
#X connect 53 0 61 0;
#X connect 57 0 21 1;
#X connect 58 0 42 1;
#X connect 60 0 21 4;
#X connect 61 0 42 4;
