#N canvas 2878 610 852 300 10;
#X obj 22 26 inlet;
#X obj 19 261 outlet;
#X obj 68 260 outlet;
#X obj 119 261 outlet;
#X obj 168 260 outlet;
#X obj 219 261 outlet;
#X obj 268 260 outlet;
#X obj 319 261 outlet;
#X obj 368 260 outlet;
#X obj 66 26 inlet;
#X obj 110 26 inlet;
#X obj 154 26 inlet;
#X obj 202 26 inlet;
#X obj 246 26 inlet;
#X obj 290 26 inlet;
#X obj 334 26 inlet;
#X obj 22 65 expr (1023-$f1)/8000;
#X obj 66 86 expr (1023-$f1)/8000;
#X obj 111 106 expr (1023-$f1)/8000;
#X obj 154 128 expr (1023-$f1)/8000;
#X obj 202 150 expr (1023-$f1)/8000;
#X obj 246 171 expr (1023-$f1)/8000;
#X obj 290 191 expr (1023-$f1)/8000;
#X obj 334 212 expr (1023-$f1)/8000;
#X connect 0 0 16 0;
#X connect 9 0 17 0;
#X connect 10 0 18 0;
#X connect 11 0 19 0;
#X connect 12 0 20 0;
#X connect 13 0 21 0;
#X connect 14 0 22 0;
#X connect 15 0 23 0;
#X connect 16 0 1 0;
#X connect 17 0 2 0;
#X connect 18 0 3 0;
#X connect 19 0 4 0;
#X connect 20 0 5 0;
#X connect 21 0 6 0;
#X connect 22 0 7 0;
#X connect 23 0 8 0;
