#N canvas 216 279 365 300 10;
#X obj 249 41 loadbang;
#X obj 249 62 delay 100;
#X msg 249 86 \; pd dsp 1;
#X obj 43 34 netreceive 8000;
#X obj 43 74 route hit;
#X obj 43 188 sampler;
#X obj 42 237 dac~;
#X msg 43 106 1;
#X msg 114 155 /home/ccrma/samples/koto/e4.wav;
#X connect 0 0 1 0;
#X connect 0 0 8 0;
#X connect 1 0 2 0;
#X connect 3 0 4 0;
#X connect 4 0 7 0;
#X connect 5 0 6 0;
#X connect 5 1 6 1;
#X connect 7 0 5 0;
#X connect 8 0 5 1;
